<?xml version="1.0" encoding="utf-8"?>
<svg id="Layer_1" data-name="Layer 1" viewBox="0 0 1000 1000" xmlns="http://www.w3.org/2000/svg" xmlns:bx="https://boxy-svg.com">
  <defs>
    <style>
      .cls-1 {
        fill: #6cf567;
      }

      .cls-2 {
        fill: #000;
      }
    </style>
    <linearGradient id="color-0" bx:pinned="true">
      <stop style="stop-color: rgb(255, 255, 255);"/>
    </linearGradient>
    <linearGradient id="color-1" bx:pinned="true">
      <stop style="stop-color: rgb(0, 0, 0);"/>
    </linearGradient>
  </defs>
  <title>Artboard 1</title>
  <rect id="_Path_" data-name="&lt;Path&gt;" class="cls-1" y="92.507" width="914.591" height="911.072" x="48.042" rx="500" ry="500" style=""/>
  <g transform="matrix(1, 0, 0, 1, 8.305648, -79.734222)">
    <path id="_Path_3" data-name="&lt;Path&gt;" class="cls-2" d="M 411.459 942.743 L 411.459 956.813 C 411.432 956.915 411.415 957.018 411.409 957.123 C 411.414 957.235 411.431 957.345 411.459 957.453 C 411.607 960.943 414.447 963.713 417.939 963.773 C 417.939 963.773 418.019 963.773 418.069 963.773 L 418.229 963.773 L 583.229 963.773 C 583.229 963.773 583.319 963.773 583.369 963.773 L 583.519 963.773 C 587.118 963.703 590.003 960.773 590.019 957.173 C 590.019 957.173 590.019 957.173 590.019 957.173 C 590.013 957.157 590.013 957.139 590.019 957.123 L 590.019 941.163 C 682.879 910.723 752.449 835.463 767.749 743.743 C 767.749 743.543 767.809 743.363 767.839 743.193 C 767.893 742.889 767.923 742.582 767.929 742.273 C 767.934 738.587 764.945 735.598 761.259 735.603 L 235.479 735.603 C 231.787 735.592 228.789 738.582 228.789 742.273 L 229.139 745.273 C 245.209 837.863 316.679 913.543 411.459 942.743" style="fill: url(#color-0);"/>
    <path id="path-1" data-name="&lt;Path&gt;" class="cls-2" d="M 416.422 559.832 L 416.422 573.902 C 416.395 574.004 416.378 574.107 416.372 574.212 C 416.378 574.324 416.394 574.434 416.422 574.542 C 416.57 578.031 419.41 580.802 422.902 580.862 C 422.902 580.862 422.982 580.862 423.032 580.862 L 423.192 580.862 L 588.192 580.862 C 588.192 580.862 588.282 580.862 588.332 580.862 L 588.482 580.862 C 592.081 580.792 594.967 577.862 594.982 574.262 C 594.982 574.262 594.982 574.262 594.982 574.262 C 594.976 574.246 594.976 574.228 594.982 574.212 L 594.982 558.252 C 687.842 527.812 757.412 452.552 772.712 360.832 C 772.712 360.632 772.772 360.452 772.802 360.282 C 772.857 359.978 772.887 359.671 772.892 359.362 C 772.898 355.676 769.908 352.687 766.222 352.692 L 240.442 352.692 C 236.751 352.681 233.752 355.671 233.752 359.362 L 234.102 362.362 C 250.172 454.952 321.642 530.632 416.422 559.832" style="fill: url(#color-0);"/>
  </g>
  <path d="M -753.818 -3952.678 H -645.064 L -645.064 -4063.643 L -492.96 -3888.106 L -645.064 -3712.57 L -645.064 -3823.534 H -753.818 V -3952.678 Z" style="stroke: rgb(0, 0, 0); fill: url(#color-1);" transform="matrix(0.999978, 0.006637, 0.004833, -0.99999, 1488.573533, -3322.883987)" bx:shape="arrow -753.818 -4063.643 260.858 351.073 129.144 152.104 0 1@af2d747d"/>
  <path d="M -753.818 -3952.678 H -645.064 L -645.064 -4063.643 L -492.96 -3888.106 L -645.064 -3712.57 L -645.064 -3823.534 H -753.818 V -3952.678 Z" style="stroke: rgb(0, 0, 0); fill: url(#color-1);" transform="matrix(-0.999978, 0.006637, -0.004833, -0.99999, -477.714661, -3327.451904)" bx:shape="arrow -753.818 -4063.643 260.858 351.073 129.144 152.104 0 1@af2d747d"/>
</svg>