<?xml version="1.0" encoding="utf-8"?>
<svg id="Layer_1" data-name="Layer 1" viewBox="0 0 1000 1000" xmlns="http://www.w3.org/2000/svg" xmlns:bx="https://boxy-svg.com">
  <defs>
    <style>
      .cls-1 {
        fill: #6e67f5;
      }

      .cls-2 {
        fill: #000;
      }
    </style>
    <linearGradient id="color-0" bx:pinned="true">
      <stop style="stop-color: rgb(0, 0, 0);"/>
    </linearGradient>
    <linearGradient id="color-1" bx:pinned="true">
      <stop style="stop-color: rgb(255, 255, 255);"/>
    </linearGradient>
  </defs>
  <title>Artboard 1</title>
  <rect id="_Path_" data-name="&lt;Path&gt;" class="cls-1" y="92.507" width="914.591" height="911.072" x="48.042" rx="500" ry="500" style=""/>
  <g>
    <path id="_Path_3" data-name="&lt;Path&gt;" class="cls-2" d="M413.12,849.72v14.07a1.54,1.54,0,0,0-.05.31,1.63,1.63,0,0,0,.05.33,6.6,6.6,0,0,0,6.48,6.32s.08,0,.13,0l.16,0h165s.09,0,.14,0l.15,0a6.63,6.63,0,0,0,6.5-6.6s0,0,0,0a.07.07,0,0,1,0-.05V848.14c92.86-30.44,162.43-105.7,177.73-197.42,0-.2.06-.38.09-.55a5.85,5.85,0,0,0,.09-.92,6.66,6.66,0,0,0-6.67-6.67H237.14a6.67,6.67,0,0,0-6.69,6.67l.35,3c16.07,92.59,87.54,168.27,182.32,197.47" style="fill: url(#color-1);"/>
  </g>
  <path d="M 1267.278 4174.609 H 1523.093 L 1522.889 4055.398 L 1705.819 4239.181 L 1522.889 4422.963 L 1523.093 4303.753 H 1267.278 V 4174.609 Z" style="stroke: rgb(0, 0, 0); fill: url(#color-1);" transform="matrix(-0.707107, -0.707107, 0.707107, -0.707107, -1630.792603, 4482.249512)" bx:shape="arrow 1267.278 4055.398 438.54 367.565 129.144 182.929 0.204 1@dd2dbbec"/>
  <path d="M 1267.278 4174.612 H 1523.093 L 1522.889 4055.401 L 1705.819 4239.184 L 1522.889 4422.966 L 1523.093 4303.756 H 1267.278 V 4174.612 Z" style="stroke: rgb(0, 0, 0); fill: url(#color-1);" transform="matrix(0.707107, -0.707107, -0.707107, -0.707107, 2642.421618, 4482.259341)" bx:shape="arrow 1267.278 4055.401 438.54 367.565 129.144 182.929 0.204 1@0cbf4e41"/>
</svg>