<?xml version="1.0" encoding="utf-8"?>
<svg id="Layer_1" data-name="Layer 1" viewBox="0 0 1000 1000" xmlns="http://www.w3.org/2000/svg">
  <defs>
    <style>
      .cls-1 {
        fill: #0D00FF;
      }

      .cls-2 {
        fill: #000;
      }
    </style>
  </defs>
  <title>Artboard 1</title>
  <rect id="_Path_" data-name="&lt;Path&gt;" class="cls-1" y="92.507" width="914.591" height="911.072" x="48.042" rx="500" ry="500" style=""/>
  <path id="_Path_2" data-name="&lt;Path&gt;" class="cls-2" d="M 539.314 337.831 L 483.724 337.831 L 483.724 328.311 C 483.724 312.561 489.374 306.611 497.994 297.391 L 519.694 274.491 C 537.244 255.761 541.114 243.861 541.114 223.631 L 541.114 204.011 C 541.114 175.171 527.114 161.481 496.804 161.481 C 467.074 161.481 451.894 177.241 451.894 205.481 L 451.894 229.871 L 482.834 229.871 L 482.834 204.591 C 482.834 192.411 488.774 188.831 495.924 188.831 C 502.454 188.831 508.104 191.521 508.104 204.011 L 508.104 220.661 C 508.104 237.321 506.614 243.861 495.614 255.451 L 476.614 275.671 C 458.154 295.311 451.314 308.401 451.314 328.311 L 451.314 365.491 L 539.314 365.491 Z"/>
  <g>
    <path id="_Path_3" data-name="&lt;Path&gt;" class="cls-2" d="M413.12,849.72v14.07a1.54,1.54,0,0,0-.05.31,1.63,1.63,0,0,0,.05.33,6.6,6.6,0,0,0,6.48,6.32s.08,0,.13,0l.16,0h165s.09,0,.14,0l.15,0a6.63,6.63,0,0,0,6.5-6.6s0,0,0,0a.07.07,0,0,1,0-.05V848.14c92.86-30.44,162.43-105.7,177.73-197.42,0-.2.06-.38.09-.55a5.85,5.85,0,0,0,.09-.92,6.66,6.66,0,0,0-6.67-6.67H237.14a6.67,6.67,0,0,0-6.69,6.67l.35,3c16.07,92.59,87.54,168.27,182.32,197.47"/>
    <path id="_Path_4" data-name="&lt;Path&gt;" class="cls-2" d="M591.49,418.2c-2.17,3.08-53,76.21,1.13,135.34,24.81,27.14,22.66,51.08,15.58,67.25h34.7c7-23.87,4.12-53.82-24-84.6-39.86-43.58.51-102.47,1.12-103.38,4.76-6.72,2.21-15.38-5.63-19.42s-18.07-1.87-22.85,4.81"/>
    <path id="_Path_5" data-name="&lt;Path&gt;" class="cls-2" d="M503.61,620.79h34.71c7-23.88,4.11-53.82-24.06-84.6-39.88-43.58.46-102.45,1.1-103.41,4.73-6.69,2.23-15.34-5.64-19.39s-18.06-1.88-22.82,4.81c-2.18,3.07-53,76.21,1.13,135.34,24.81,27.14,22.64,51.09,15.58,67.25"/>
    <path id="_Path_6" data-name="&lt;Path&gt;" class="cls-2" d="M382.29,418.2c-2.2,3.08-53,76.21,1.12,135.34,24.82,27.15,22.67,51.09,15.6,67.25h34.7c7-23.86,4.12-53.81-24.08-84.6-39.87-43.58.5-102.47,1.14-103.4,4.71-6.7,2.2-15.36-5.67-19.4s-18.05-1.88-22.81,4.81"/>
  </g>
</svg>